<svg width="226" height="241" viewBox="0 0 226 241" fill="none" xmlns="http://www.w3.org/2000/svg">
<ellipse cx="108" cy="126.5" rx="108" ry="107.5" fill="#1B262C"/>
<path d="M91.0439 204.804C78.9111 204.914 69.6812 201.665 63.3544 195.055C57.1609 188.444 54.0182 180.072 53.9264 169.939C53.8611 162.74 55.2624 155.527 58.1304 148.3C61.1305 140.94 65.4056 134.501 70.9558 128.983C76.506 123.466 83.0059 119.74 90.4553 117.806C86.2956 114.91 83.197 111.405 81.1596 107.29C79.121 103.042 78.0806 98.5843 78.0383 93.9178C77.9754 86.9847 79.7804 80.1681 83.4531 73.4679C87.2592 66.7664 92.4767 61.3189 99.1056 57.1253C105.867 52.7972 113.314 50.5963 121.447 50.5225C129.846 50.4464 136.733 52.5841 142.106 56.9355C147.479 61.287 150.201 67.3959 150.272 75.2623C150.325 81.1287 148.903 86.0751 146.006 90.1015C143.11 94.128 139.661 96.1593 135.661 96.1956C132.061 96.2282 128.912 94.4567 126.213 90.881C128.605 90.0593 130.652 87.8406 132.353 84.2251C134.053 80.6095 134.887 77.0018 134.855 73.4019C134.82 69.5354 133.728 66.7452 131.579 65.0313C129.428 63.184 126.82 62.2743 123.754 62.3021C119.887 62.3372 116.367 63.7691 113.192 66.598C110.15 69.2924 107.782 72.8473 106.088 77.2628C104.394 81.5451 103.568 86.0194 103.61 90.6859C103.668 97.0856 105.386 102.737 108.764 107.64C112.141 112.409 117.237 115.63 124.052 117.302C117.266 118.83 111.163 122.219 105.744 127.468C100.324 132.717 96.1127 138.822 93.109 145.783C90.1041 152.611 88.6301 159.158 88.6869 165.424C88.7412 171.424 90.3186 176.277 93.419 179.982C96.6527 183.686 101.469 185.509 107.869 185.451C114.536 185.391 121.452 183.528 128.619 179.863C135.919 176.063 141.273 171.014 144.683 164.717L149.301 166.675C144.205 178.188 136.288 187.394 125.55 194.291C114.812 201.189 103.31 204.693 91.0439 204.804Z" fill="url(#paint0_linear)"/>
<defs>
<linearGradient id="paint0_linear" x1="85.5" y1="224" x2="51" y2="-3.88034e-06" gradientUnits="userSpaceOnUse">
<stop offset="0.10007" stop-color="#E7BDEE" stop-opacity="0.817617"/>
<stop offset="0.378131" stop-color="#87BAD6" stop-opacity="0.635417"/>
<stop offset="0.513804" stop-color="#001C2B"/>
<stop offset="0.576526" stop-color="#B3A6B5"/>
<stop offset="0.776931" stop-color="#1DACAC"/>
</linearGradient>
</defs>
</svg>
